<svg xmlns="http://www.w3.org/2000/svg" xml:space="preserve" width="256" height="256"><g style="stroke:none;stroke-width:0;stroke-dasharray:none;stroke-linecap:butt;stroke-linejoin:miter;stroke-miterlimit:10;fill:none;fill-rule:nonzero;opacity:1"><path d="M31.336 8.741c-.078-1.71-.35-2.878-.747-3.9a7.88 7.88 0 0 0-1.853-2.846A7.886 7.886 0 0 0 25.89.141c-1.022-.397-2.19-.668-3.9-.746-1.713-.078-2.261-.097-6.624-.097s-4.911.019-6.624.097c-1.71.078-2.878.35-3.9.747a7.865 7.865 0 0 0-2.846 1.854A7.878 7.878 0 0 0 .142 4.842c-.397 1.022-.668 2.19-.746 3.9-.079 1.714-.097 2.261-.097 6.625s.019 4.911.097 6.625c.078 1.71.35 2.878.747 3.9a7.88 7.88 0 0 0 1.853 2.846 7.87 7.87 0 0 0 2.846 1.853c1.022.397 2.19.669 3.9.747 1.713.078 2.261.097 6.624.097s4.911-.018 6.624-.097c1.71-.078 2.878-.35 3.9-.747a8.216 8.216 0 0 0 4.699-4.699c.397-1.022.669-2.19.747-3.9.078-1.714.097-2.261.097-6.625s-.019-4.912-.097-6.626zm-2.892 13.117c-.071 1.567-.333 2.417-.553 2.983a5.321 5.321 0 0 1-3.049 3.049c-.566.22-1.417.482-2.983.553-1.694.077-2.202.094-6.492.094-4.291 0-4.799-.016-6.492-.094-1.566-.071-2.417-.333-2.983-.553a4.974 4.974 0 0 1-1.847-1.202 4.974 4.974 0 0 1-1.202-1.847c-.22-.566-.482-1.417-.553-2.983-.077-1.694-.094-2.202-.094-6.492s.016-4.798.094-6.492c.069-1.568.33-2.418.55-2.984a4.99 4.99 0 0 1 1.202-1.848A4.986 4.986 0 0 1 5.89 2.84c.566-.22 1.417-.482 2.983-.553 1.694-.077 2.202-.093 6.492-.093s4.798.016 6.492.094c1.567.071 2.417.333 2.983.553a4.974 4.974 0 0 1 1.847 1.202c.534.518.944 1.15 1.202 1.848.22.566.482 1.417.553 2.983.077 1.694.094 2.202.094 6.492s-.015 4.798-.092 6.492z" style="stroke:none;stroke-width:1;stroke-dasharray:none;stroke-linecap:butt;stroke-linejoin:miter;stroke-miterlimit:10;fill:#000;fill-rule:nonzero;opacity:1" transform="matrix(7.8702 0 0 7.8702 6.925 6.925)"/><path d="M15.365 7.115a8.251 8.251 0 1 0 .003 16.5 8.251 8.251 0 0 0-.003-16.5zm0 13.606a5.356 5.356 0 1 1 .002-10.712 5.356 5.356 0 0 1-.002 10.712zM25.87 6.789a1.928 1.928 0 1 1-3.856 0 1.928 1.928 0 0 1 3.856 0z" style="stroke:none;stroke-width:1;stroke-dasharray:none;stroke-linecap:butt;stroke-linejoin:miter;stroke-miterlimit:10;fill:#000;fill-rule:nonzero;opacity:1" transform="matrix(7.8702 0 0 7.8702 6.925 6.925)"/></g></svg>