<svg xmlns="http://www.w3.org/2000/svg" width="875" height="117"><path fill="#FBFDFD" d="M37 2h113v102h-7v4h-4l1 7H37V2Zm5 4v61l25 1v2h2v2h3v2h2v22h-5v4H53v11h83v-3h-14l-1-3h-3l-1-4h-3V71h4v-4l24 1 2 4h2V6H42Zm11 73v9h7v-9h-7Zm74 0v17h8V79h-8Z"/><path fill="#FEDB08" d="M385 33h37v2h4c1.286 2.571 1.12 4.397 1.114 7.276v3.336l-.016 3.615-.005 3.69c-.005 3.903-.018 7.805-.03 11.708-.006 2.64-.01 5.281-.014 7.922-.011 6.484-.028 12.969-.049 19.453h-6v5h-31l-1-4h-4V81l5-1-1-4h-4l-2-6h-4V39h6v-6Zm12 17v13h12V50h-12Z"/><path fill="#FEDD04" d="M225 33h31v2h4l2 6h4c1.487 2.974 1.111 5.663 1.098 8.977l-.005 2.076c-.005 2.19-.018 4.381-.03 6.572-.006 1.484-.01 2.969-.014 4.453-.011 3.64-.028 7.281-.049 10.922l-5 1v2h4c2.241 4.482 1 9.989 1 15h-37l-1-4h-4l-2-6h-4V39h6v-6Zm12 17v7h12v-7h-12Z"/><path fill="#FEDE02" d="M582 33h36v2l5 1v54h-6v5c-4.236.025-8.472.043-12.708.055-1.44.005-2.882.012-4.324.02-2.07.013-4.14.018-6.21.023l-3.777.016C587 95 587 95 585 94v-2h-3V80h23v-2l-3.867.035-5.008.028-2.55.025-2.442.01-2.254.016C587 78 587 78 585 77v-2h-3l-1-3-2-1v-2h-3V39h6v-6Zm12 16v13h11V49h-11Z"/><path fill="#FEDE01" d="M634 33h30v2l5 1 1 5 5 1v30h-29v2h24v2l5 1v13c-5.09.025-10.18.043-15.271.055-1.732.005-3.465.012-5.197.02-2.487.013-4.975.018-7.462.023l-2.355.015c-5.487 0-5.487 0-7.715-1.113v-2h-3l-1-3-2-1v-2h-3V39h6v-6Zm12 16v8h11v-8h-11Z"/><path fill="#FEDE02" d="M784 33h13v2l5 1v26h11V33h13v2l5 1v54h-6v5h-30l-1-3h-4V80h23v-2h-18l-1-3h-4l-2-6h-4V33Z"/><path fill="#FEDD05" d="M196 27h13v2h4c1.351 2.703 1.12 4.8 1.114 7.827v3.7l-.016 4.012-.005 4.094a5352.72 5352.72 0 0 1-.024 10.782c-.01 3.666-.015 7.333-.02 11-.01 7.194-.03 14.39-.049 21.585h-37l-1-4h-4l-2-6h-4V51h6v-6h24V27Zm-12 35v13h12V62h-12Z"/><path fill="#FEDD02" d="M529 33h30v2l5 1 1 5 5 1v48h-36l-1-3h-4l-2-6h-4V57h6v-6h23v-2h-18l-1-3h-4V33Zm12 33v8h11v-8h-11Z"/><path fill="#FEDC06" d="M433 33h37v2h3v2h2l1 4h3v2h2v49h-13v-2h-2v-2h-3V50h-12v42h-13v-2h-2v-2h-3V33Z"/><path fill="#FDDC06" d="M279 33h37v2h3v2h2v13h-30v7h19v2h3v2h2l1 4h3v2h2v19h-6v6h-37v-2h-2v-2h-3V75h30v-7h-19v-2h-2v-2h-3l-1-4h-2v-2h-3V39h6v-6Z"/><path fill="#FFDE00" d="M680 33h36v2l5 1 1 5 5 1v48h-13l-1-3h-4V49h-11v41h-13l-1-3h-4V33Z"/><path fill="#FEDE01" d="M738 33h36v2l5 1v13h-29v25h24v2l5 1v13h-36l-1-3h-4l-2-6h-4V39h6v-6Z"/><path fill="#FEDD03" d="M118 67c3.437-.029 6.875-.047 10.313-.063l2.958-.025 2.842-.01 2.619-.016C139 67 139 67 142 68c2.12 3.856 2.182 7.06 1.977 11.395l-.157 3.642-.195 3.775-.172 3.834A1511.99 1511.99 0 0 1 143 100h-7v5h-18l-1-3-3-1V71h4v-4Zm9 12v17h8V79h-8Z"/><path fill="#FFDD04" d="M338 45h13v2h4c1.154 2.308 1.121 3.608 1.114 6.174v2.609l-.016 2.819-.005 2.883a3923.13 3923.13 0 0 1-.03 9.14c-.006 2.062-.01 4.125-.014 6.188A8112.59 8112.59 0 0 1 356 92h-13l-1-4h-4V45Z"/><path fill="#FEDA09" d="m77 67 12.313-.063 3.872-.027 3.053-.008 3.127-.016C102 67 102 67 105 68l2 3 3 1c1.715 3.43 1.054 7.217 1 11h-9l-1-2a128.606 128.606 0 0 0-7-2v4h-4v25h-9l-1-2-3-1V67Z"/><path fill="#FFDD04" d="M42 67h22v5h4v20h-4v5H48v12h-6V67Zm11 12v9h7v-9h-7Z"/><path fill="#F576B4" d="M209 29h4c1.351 2.703 1.12 4.8 1.114 7.827v3.7l-.016 4.012-.005 4.094a5352.72 5352.72 0 0 1-.024 10.782c-.01 3.666-.015 7.333-.02 11-.01 7.194-.03 14.39-.049 21.585h-37l-1-5h33V29Z"/><path fill="#FA7BA8" d="m617 35 6 1v54h-6v5c-4.236.025-8.472.043-12.708.055-1.44.005-2.882.012-4.324.02-2.07.013-4.14.018-6.21.023l-3.777.016C587 95 587 95 585 94v-2h27v-6h5V35Z"/><path fill="#FB77AA" d="M825 35h5c1 1 1 1 1.12 3.17l-.006 2.9v3.276l-.016 3.564-.005 3.628c-.005 3.841-.018 7.683-.03 11.525-.006 2.597-.01 5.194-.014 7.79A12263.7 12263.7 0 0 1 831 90h-6v5h-30l-1-3h26v-6h5V35Z"/><path fill="#F378B5" d="M422 35h4c1.286 2.571 1.12 4.397 1.114 7.276v3.336l-.016 3.615-.005 3.69c-.005 3.903-.018 7.805-.03 11.708-.006 2.64-.01 5.281-.014 7.922-.011 6.484-.028 12.969-.049 19.453h-6v5h-31l-1-4h27v-6h6V35Z"/><path fill="#FF74A8" d="M564 41h5c1 1 1 1 1.12 2.943l-.006 2.577v2.912l-.016 3.166-.005 3.224c-.005 3.413-.018 6.827-.03 10.24-.006 2.308-.01 4.616-.014 6.924-.01 5.672-.03 11.343-.049 17.014h-36l-1-4h31V41Z"/><path fill="#FE7F9D" d="M773 35h5c3.308 3.308 1 9.321 1 14h-29v26h-6V45h29V35Z"/><path fill="#FF79A3" d="M692 45h18v4h-12v41h-13l-1-4h8V45Z"/><path fill="#FB74AE" d="M446 45h18v5h-13v42h-13v-2h-2v-3h10V45Z"/><path fill="#F683A3" d="M261 41h5c1.487 2.974 1.111 5.663 1.098 8.977l-.008 3.799-.027 4.849L267 74l-35 1v-6h29V41Z"/><path fill="#FF76A7" d="M721 41h5c1 1 1 1 1.12 2.943l-.006 2.577v2.912l-.016 3.166-.005 3.224c-.005 3.413-.018 6.827-.03 10.24A10214.733 10214.733 0 0 1 727 90h-13l-1-4h8V41Z"/><path fill="#C0B3AC" d="m669 41 6 1v30h-29v3h-6v-7h29V41Z"/><path fill="#F07BB5" d="M476 41h3v2h2v49h-13v-2h-2v-3h10V41Z"/><path fill="#FFDD03" d="M338 27h13v2h4c2.13 4.262 1.045 10.408 1 15h-13l-1-4h-4V27Z"/><path fill="#F971B4" d="M351 47h4c1.154 2.308 1.121 3.608 1.114 6.174v2.609l-.016 2.819-.005 2.883a3923.13 3923.13 0 0 1-.03 9.14c-.006 2.062-.01 4.125-.014 6.188A8112.59 8112.59 0 0 1 356 92h-13l-1-5h9V47Z"/><path fill="#6BF0C7" d="M621 36h2v54h-6v5h-30v-1h28v-6h5l-.007-1.93c-.022-6.601-.037-13.203-.048-19.805-.005-2.466-.012-4.933-.02-7.4-.013-3.537-.018-7.074-.023-10.611l-.015-3.365v-3.094l-.007-2.739C620 37 620 37 621 36Z"/><path fill="#FF70AC" d="M773 76h5c3.308 3.308 1 9.321 1 14h-36l-1-4h31V76Z"/><path fill="#FF7BA1" d="M89 76h9v3h-4v4h-4v25h-9l-1-3h5V80h4v-4Z"/><path fill="#59FCC9" d="M319 67h2v19h-6v6h-37v-3h35v-6h6V67Z"/><path fill="#59FDC9" d="M213 31h1v61h-37v-3h36V31Z"/><path fill="#D79AAE" d="M796 35h5c1 1 1 1 1.114 3.592l-.016 3.412-.01 3.682-.025 3.877-.014 3.888c-.012 3.183-.028 6.366-.049 9.549h-6V35Z"/><path fill="#71EDC7" d="M568 42h2v48h-36v-2h34V42Z"/><path fill="#5FF9C8" d="M449 47h15v3h-13v42h-13v-3h11V47Z"/><path fill="#69F3C7" d="M71 74h3v22h-5v4H53v11h-9v-1h6V98h17v-5h4V74Z"/><path fill="#FF839A" d="M588 45h18v4h-12v14h-6V45Z"/><path fill="#FC75AC" d="M179 57h18v5h-13v13h-5V57Z"/><path fill="#FC76AB" d="M392 45h18v5h-13v13h-5V45Z"/><path fill="#F279B5" d="M316 65h3v18h-6v6l-37 1v-3h34v-6h6V65Z"/><path fill="#73EBC6" d="M830 36h1v54h-6v5h-30v-1h29v-6h5l-.007-1.93c-.022-6.601-.037-13.203-.048-19.805-.005-2.466-.012-4.933-.02-7.4-.013-3.537-.018-7.074-.023-10.611l-.015-3.365v-3.094l-.007-2.739C829 37 829 37 830 36Z"/><path fill="#F974B0" d="M64 68h3v2h2v2h3l-1 21h-4v5H50v12l-8 1v-2h6V97h16v-5h4V72h-4v-4Z"/><path fill="#6EEEC7" d="M318 37h3v13h-30v7h-2V47h29V37Z"/><path fill="#56FEC9" d="M426 37h1v55h-6v5h-31v-2h30v-6h6V37Z"/><path fill="#81E2C5" d="M778 36h1v13h-29v25h-2V47h29V37l1-1Z"/><path fill="#7CE6C5" d="M696 47h14v2h-12v41h-13v-2h11V47Z"/><path fill="#57FEC9" d="M479 43h2v49h-13v-3h11V43Z"/><path fill="#FF7CA1" d="M122 76h13v3h-8v18h-5V76Z"/><path fill="#FD7DA1" d="M315 35h4l-1 12h-29v10h-3V45h29V35Z"/><path fill="#FC78A8" d="M232 45h18v5h-13v7h-5V45Z"/><path fill="#60F9C9" d="M266 43h1v31l-31 1v-4h30V43Z"/><path fill="#5AFCC9" d="M266 79h1v13h-37v-3h36V79Z"/><path fill="#FF8399" d="M640 45h18v4h-12v8h-6V45Z"/><path fill="#79E7C6" d="M725 42h2v48h-13v-2h11V42Z"/><path fill="#FF6EAF" d="M262 77h4v12l-37 1v-3h33V77Z"/><path fill="#FA6FB4" d="M351 29h4c2.13 4.262 1.045 10.408 1 15h-13l-1-4c1-1 1-1 2.848-1.098L351 39V29Z"/><path fill="#64F6C8" d="M672 77h3v13h-36v-2h33V77Z"/><path fill="#FF71AC" d="m669 76 4 1-1 11-35 1v-3h32V76Z"/><path fill="#EE8DA4" d="M47 76h13v3h-7v10h-6V76Z"/><path fill="#66F5C8" d="M777 77h2v13h-36v-2h34V77Z"/><path fill="#73EBC6" d="M92 77h6v2h-4v4h-4v25h-9v-2h7V81h4v-4Z"/><path fill="#FF69B4" d="M536 63h17v3h-12v8h-5V63Z"/><path fill="#FF75A9" d="M144 72h2v28h-3c-.029-4.48-.047-8.958-.063-13.438l-.025-3.876-.01-3.682-.016-3.412C143 73 143 73 144 72Z"/><path fill="#C6B0AB" d="M585 74h21v4c-3.125.029-6.25.047-9.375.063l-2.695.025-2.578.01-2.38.016C587 78 587 78 585 77v-3Z"/><path fill="#FB6DB4" d="m416 88 4 1v6h-31v-2h27v-5Z"/><path fill="#C4B2AB" d="M794 74h20v4h-19l-1-4Z"/><path fill="#58FDC9" d="M355 49h1v43h-13v-3h12V49Z"/><path fill="#C4B2AB" d="M533 45h20v4h-19l-1-4Z"/><path fill="#7EE6C3" d="M591 47h15v2h-12v14h-3V47Z"/><path fill="#FF6EAF" d="M276 87h34c-2.792 2.792-5.453 2.351-9.195 2.414l-2.144.059c-2.262.06-4.524.106-6.786.152-1.533.038-3.065.077-4.598.117-3.759.096-7.518.18-11.277.258v-3Z"/><path fill="#FF70AD" d="M107 72h3c1.715 3.43 1.054 7.217 1 11h-9l-1-3h5l-.063-3.438C106 73 106 73 107 72Z"/><path fill="#63F8C7" d="M390 77h20l-1 3h-19v-3Z"/><path fill="#6BF4C5" d="M285 65h19v3h-20l1-3Z"/><path fill="#78E9C4" d="M125 77h10v2h-8v18h-2V77Z"/><path fill="#6AF4C5" d="M183 59h14v3h-13v13h-1V59Z"/><path fill="#6DF2C4" d="M396 47h14v3h-13v13h-1V47Z"/><path fill="#7FE4C4" d="M643 47h15v2h-12v8h-3V47Z"/><path fill="#F475B5" d="M262 77h4v12h-6l2-1V77Z"/><path fill="#FE76A7" d="M773 35h5l-1 12h-4V35Z"/><path fill="#6FF0C4" d="M236 47h14v3h-13v7h-1V47Z"/><path fill="#69F2C7" d="M355 31h1v13h-13l1-3h11V31Z"/><path fill="#FE7BA4" d="M283 63h21v2l-22 1 1-3Z"/><path fill="#99CDBF" d="m552 63 1 3h-12v8h-2V64l13-1Z"/><path fill="#FD6BB4" d="M232 70h28v1h-24v4h-4v-5Z"/><path fill="#56FFCA" d="M51 77h9v2h-7v9h-2V77Z"/><path fill="#EC93A0" d="M64 68h3v2h2v22h-1V72h-4v-4Z"/><path fill="#64F6C8" d="M109 74h2v9h-9v-2h7v-7Z"/><path fill="#CEAEA1" d="m664 35 5 1v4h-6l1-5Z"/><path fill="#E192AB" d="m716 35 5 1v4h-5v-5ZM559 35l5 1v4h-5v-5Z"/><path fill="#FF74A8" d="M89 76h9v1h-6v4l-4-1 1-4Z"/><path fill="#FD859A" d="M343 39h8c-2.762 2.762-5.207 2.579-9 3l1-3Z"/></svg>