<svg xmlns="http://www.w3.org/2000/svg" xml:space="preserve" width="256" height="256"><g style="stroke:none;stroke-width:0;stroke-dasharray:none;stroke-linecap:butt;stroke-linejoin:miter;stroke-miterlimit:10;fill:none;fill-rule:nonzero;opacity:1"><path d="m24.89 23.01 32.9 43.98h7.45l-32.9-43.98z" style="stroke:none;stroke-width:1;stroke-dasharray:none;stroke-linecap:butt;stroke-linejoin:miter;stroke-miterlimit:10;fill:#000;fill-rule:nonzero;opacity:1" transform="matrix(2.81 0 0 2.81 1.407 1.407)"/><path d="M72.349 0H17.651C7.902 0 0 7.902 0 17.651V72.35C0 82.098 7.902 90 17.651 90H72.35C82.098 90 90 82.098 90 72.349V17.651C90 7.902 82.098 0 72.349 0zM56.032 70.504 41.054 50.477 22.516 70.504h-4.765L38.925 47.63 17.884 19.496h16.217L47.895 37.94l17.072-18.444h4.765L50.024 40.788l22.225 29.716H56.032z" style="stroke:none;stroke-width:1;stroke-dasharray:none;stroke-linecap:butt;stroke-linejoin:miter;stroke-miterlimit:10;fill:#000;fill-rule:nonzero;opacity:1" transform="matrix(2.81 0 0 2.81 1.407 1.407)"/></g></svg>